<?xml version="1.0" encoding="UTF-8" standalone="no"?>
<!-- Created with Inkscape (http://www.inkscape.org/) -->

<svg
   xmlns:dc="http://purl.org/dc/elements/1.1/"
   xmlns:cc="http://creativecommons.org/ns#"
   xmlns:rdf="http://www.w3.org/1999/02/22-rdf-syntax-ns#"
   xmlns:svg="http://www.w3.org/2000/svg"
   xmlns="http://www.w3.org/2000/svg"
   xmlns:sodipodi="http://sodipodi.sourceforge.net/DTD/sodipodi-0.dtd"
   xmlns:inkscape="http://www.inkscape.org/namespaces/inkscape"
   width="4320"
   height="2160"
   id="svg2"
   version="1.1"
   inkscape:version="0.48.4 r9939"
   sodipodi:docname="cabinet.dxf">
  <defs
     id="defs4" />
  <sodipodi:namedview
     id="base"
     pagecolor="#ffffff"
     bordercolor="#666666"
     borderopacity="1.0"
     inkscape:pageopacity="0.0"
     inkscape:pageshadow="2"
     inkscape:zoom="0.13490457"
     inkscape:cx="2134.3425"
     inkscape:cy="1063.2678"
     inkscape:document-units="px"
     inkscape:current-layer="g3188"
     showgrid="false"
     units="in"
     inkscape:window-width="942"
     inkscape:window-height="662"
     inkscape:window-x="0"
     inkscape:window-y="82"
     inkscape:window-maximized="0" />
  <metadata
     id="metadata7">
    <rdf:RDF>
      <cc:Work
         rdf:about="">
        <dc:format>image/svg+xml</dc:format>
        <dc:type
           rdf:resource="http://purl.org/dc/dcmitype/StillImage" />
        <dc:title></dc:title>
      </cc:Work>
    </rdf:RDF>
  </metadata>
  <g
     inkscape:label="Layer 1"
     inkscape:groupmode="layer"
     id="layer1"
     transform="translate(0,1107.6403)">
    <g
       id="g3075"
       transform="translate(-348,33.99996)">
      <path
         style="fill:none;stroke:#ff0000;stroke-width:1;stroke-miterlimit:4;stroke-opacity:1"
         d="m 1395,-1062.6403 0,-45.5 990,-0.038 0,45.54 45.5,0 0,90.00004 -45.5,0 0,90 45.5,0 0,90 -45.5,0 0,44.5 -990,-0.04 0,-44.46 -44.5,0 0,-90 44.5,-0.002 0,-90 -44.5,0 0,-90.00004 z"
         id="rect3016"
         inkscape:connector-curvature="0"
         sodipodi:nodetypes="ccccccccccccccccccccc" />
      <g
         transform="translate(45.5,0.25004119)"
         id="g3039">
        <g
           id="g3026"
           transform="translate(112.5,-16.499991)">
          <path
             transform="matrix(0.81042665,0,0,0.73995472,252.931,-1085.5312)"
             d="m 1436.5048,243.78641 c 0,33.29794 -24.646,60.29126 -55.0485,60.29126 -30.4025,0 -55.0485,-26.99332 -55.0485,-60.29126 0,-33.29795 24.646,-60.29127 55.0485,-60.29127 30.4025,0 55.0485,26.99332 55.0485,60.29127 z"
             sodipodi:ry="60.291264"
             sodipodi:rx="55.048542"
             sodipodi:cy="243.78641"
             sodipodi:cx="1381.4563"
             id="path3020"
             style="fill:none;stroke:#ff0000;stroke-width:1;stroke-miterlimit:4;stroke-opacity:1;stroke-dasharray:none"
             sodipodi:type="arc" />
          <path
             transform="matrix(1.2420688,0,0,1.2420688,-336.83093,-1572.686)"
             d="m 1384.7541,408.83057 c 0,4.72616 -3.8313,8.55747 -8.5574,8.55747 -4.7262,0 -8.5575,-3.83131 -8.5575,-8.55747 0,-4.72616 3.8313,-8.55747 8.5575,-8.55747 4.7261,0 8.5574,3.83131 8.5574,8.55747 z"
             sodipodi:ry="8.5574694"
             sodipodi:rx="8.5574694"
             sodipodi:cy="408.83057"
             sodipodi:cx="1376.1967"
             id="path3022"
             style="fill:none;stroke:#ff0000;stroke-width:1;stroke-miterlimit:4;stroke-opacity:1;stroke-dasharray:none"
             sodipodi:type="arc" />
          <path
             sodipodi:type="arc"
             style="fill:none;stroke:#ff0000;stroke-width:1;stroke-miterlimit:4;stroke-opacity:1;stroke-dasharray:none"
             id="path3024"
             sodipodi:cx="1376.1967"
             sodipodi:cy="408.83057"
             sodipodi:rx="8.5574694"
             sodipodi:ry="8.5574694"
             d="m 1384.7541,408.83057 c 0,4.72616 -3.8313,8.55747 -8.5574,8.55747 -4.7262,0 -8.5575,-3.83131 -8.5575,-8.55747 0,-4.72616 3.8313,-8.55747 8.5575,-8.55747 4.7261,0 8.5574,3.83131 8.5574,8.55747 z"
             transform="matrix(1.2420688,0,0,1.2420688,-336.83093,-1266.686)" />
        </g>
        <g
           transform="translate(832.5,-16.499991)"
           id="g3031">
          <path
             sodipodi:type="arc"
             style="fill:none;stroke:#ff0000;stroke-width:1;stroke-miterlimit:4;stroke-opacity:1;stroke-dasharray:none"
             id="path3033"
             sodipodi:cx="1381.4563"
             sodipodi:cy="243.78641"
             sodipodi:rx="55.048542"
             sodipodi:ry="60.291264"
             d="m 1436.5048,243.78641 c 0,33.29794 -24.646,60.29126 -55.0485,60.29126 -30.4025,0 -55.0485,-26.99332 -55.0485,-60.29126 0,-33.29795 24.646,-60.29127 55.0485,-60.29127 30.4025,0 55.0485,26.99332 55.0485,60.29127 z"
             transform="matrix(0.81042665,0,0,0.73995472,252.931,-1085.5312)" />
          <path
             sodipodi:type="arc"
             style="fill:none;stroke:#ff0000;stroke-width:1;stroke-miterlimit:4;stroke-opacity:1;stroke-dasharray:none"
             id="path3035"
             sodipodi:cx="1376.1967"
             sodipodi:cy="408.83057"
             sodipodi:rx="8.5574694"
             sodipodi:ry="8.5574694"
             d="m 1384.7541,408.83057 c 0,4.72616 -3.8313,8.55747 -8.5574,8.55747 -4.7262,0 -8.5575,-3.83131 -8.5575,-8.55747 0,-4.72616 3.8313,-8.55747 8.5575,-8.55747 4.7261,0 8.5574,3.83131 8.5574,8.55747 z"
             transform="matrix(1.2420688,0,0,1.2420688,-336.83093,-1572.686)" />
          <path
             transform="matrix(1.2420688,0,0,1.2420688,-336.83093,-1266.686)"
             d="m 1384.7541,408.83057 c 0,4.72616 -3.8313,8.55747 -8.5574,8.55747 -4.7262,0 -8.5575,-3.83131 -8.5575,-8.55747 0,-4.72616 3.8313,-8.55747 8.5575,-8.55747 4.7261,0 8.5574,3.83131 8.5574,8.55747 z"
             sodipodi:ry="8.5574694"
             sodipodi:rx="8.5574694"
             sodipodi:cy="408.83057"
             sodipodi:cx="1376.1967"
             id="path3037"
             style="fill:none;stroke:#ff0000;stroke-width:1;stroke-miterlimit:4;stroke-opacity:1;stroke-dasharray:none"
             sodipodi:type="arc" />
        </g>
      </g>
      <g
         transform="translate(37.350395,-37.350356)"
         id="g3061">
        <path
           sodipodi:type="arc"
           style="fill:none;stroke:#ff0000;stroke-width:1;stroke-miterlimit:4;stroke-opacity:1;stroke-dasharray:none"
           id="path3049"
           sodipodi:cx="1739.7402"
           sodipodi:cy="140.24203"
           sodipodi:rx="49.26239"
           sodipodi:ry="49.26239"
           d="m 1789.0026,140.24203 c 0,27.20687 -22.0555,49.2624 -49.2624,49.2624 -27.2068,0 -49.2624,-22.05553 -49.2624,-49.2624 0,-27.20686 22.0556,-49.262385 49.2624,-49.262385 27.2069,0 49.2624,22.055525 49.2624,49.262385 z"
           transform="matrix(1.0679748,0,0,1.0680683,-184.85359,-950.57798)" />
        <path
           transform="matrix(1.0680678,0,0,1.0680678,-5.0109181,-1130.5779)"
           d="m 1789.0026,140.24203 c 0,27.20687 -22.0555,49.2624 -49.2624,49.2624 -27.2068,0 -49.2624,-22.05553 -49.2624,-49.2624 0,-27.20686 22.0556,-49.262385 49.2624,-49.262385 27.2069,0 49.2624,22.055525 49.2624,49.262385 z"
           sodipodi:ry="49.26239"
           sodipodi:rx="49.26239"
           sodipodi:cy="140.24203"
           sodipodi:cx="1739.7402"
           id="path3051"
           style="fill:none;stroke:#ff0000;stroke-width:1;stroke-miterlimit:4;stroke-opacity:1;stroke-dasharray:none"
           sodipodi:type="arc" />
        <path
           transform="matrix(1.0680678,0,0,1.0680678,-185.01092,-1130.5779)"
           d="m 1789.0026,140.24203 c 0,27.20687 -22.0555,49.2624 -49.2624,49.2624 -27.2068,0 -49.2624,-22.05553 -49.2624,-49.2624 0,-27.20686 22.0556,-49.262385 49.2624,-49.262385 27.2069,0 49.2624,22.055525 49.2624,49.262385 z"
           sodipodi:ry="49.26239"
           sodipodi:rx="49.26239"
           sodipodi:cy="140.24203"
           sodipodi:cx="1739.7402"
           id="path3053"
           style="fill:none;stroke:#ff0000;stroke-width:1;stroke-miterlimit:4;stroke-opacity:1;stroke-dasharray:none"
           sodipodi:type="arc" />
        <path
           sodipodi:type="arc"
           style="fill:none;stroke:#ff0000;stroke-width:1;stroke-miterlimit:4;stroke-opacity:1;stroke-dasharray:none"
           id="path3055"
           sodipodi:cx="1739.7402"
           sodipodi:cy="140.24203"
           sodipodi:rx="49.26239"
           sodipodi:ry="49.26239"
           d="m 1789.0026,140.24203 c 0,27.20687 -22.0555,49.2624 -49.2624,49.2624 -27.2068,0 -49.2624,-22.05553 -49.2624,-49.2624 0,-27.20686 22.0556,-49.262385 49.2624,-49.262385 27.2069,0 49.2624,22.055525 49.2624,49.262385 z"
           transform="matrix(1.0680678,0,0,1.0680678,-5.0109181,-950.57791)" />
        <path
           sodipodi:type="arc"
           style="fill:none;stroke:#ff0000;stroke-width:1;stroke-miterlimit:4;stroke-opacity:1;stroke-dasharray:none"
           id="path3057"
           sodipodi:cx="1739.7402"
           sodipodi:cy="140.24203"
           sodipodi:rx="49.26239"
           sodipodi:ry="49.26239"
           d="m 1789.0026,140.24203 c 0,27.20687 -22.0555,49.2624 -49.2624,49.2624 -27.2068,0 -49.2624,-22.05553 -49.2624,-49.2624 0,-27.20686 22.0556,-49.262385 49.2624,-49.262385 27.2069,0 49.2624,22.055525 49.2624,49.262385 z"
           transform="matrix(1.0680678,0,0,1.0680678,174.98908,-1130.5779)" />
        <path
           transform="matrix(1.0680678,0,0,1.0680678,174.98908,-950.57791)"
           d="m 1789.0026,140.24203 c 0,27.20687 -22.0555,49.2624 -49.2624,49.2624 -27.2068,0 -49.2624,-22.05553 -49.2624,-49.2624 0,-27.20686 22.0556,-49.262385 49.2624,-49.262385 27.2069,0 49.2624,22.055525 49.2624,49.262385 z"
           sodipodi:ry="49.26239"
           sodipodi:rx="49.26239"
           sodipodi:cy="140.24203"
           sodipodi:cx="1739.7402"
           id="path3059"
           style="fill:none;stroke:#ff0000;stroke-width:1;stroke-miterlimit:4;stroke-opacity:1;stroke-dasharray:none"
           sodipodi:type="arc" />
      </g>
    </g>
    <path
       style="fill:none;stroke:#ff0000;stroke-width:1;stroke-miterlimit:4;stroke-opacity:1"
       d="m 2205,-543.6403 0,-90.50002 990,-0.04 0,90.54002 45.5,0 0,180 -45.5,0 0,270 45.5,0 0,180 -45.5,0 0,89.49998 -990,0 0,-89.49998 -44.46,0 -0.04,-180 44.5,0 0,-270 -44.5,0 0,-180 z"
       id="rect3073"
       inkscape:connector-curvature="0"
       sodipodi:nodetypes="ccccccccccccccccccccc" />
    <g
       id="g3225"
       transform="translate(0,22)">
      <rect
         y="-521.16034"
         x="1205.5205"
         height="540"
         width="720"
         id="rect3094"
         style="fill:none;stroke:#ff0000;stroke-width:1;stroke-miterlimit:4;stroke-opacity:1;stroke-dasharray:none" />
      <path
         style="fill:none;stroke:#ff0000;stroke-width:1;stroke-miterlimit:4;stroke-opacity:1"
         d="m 1070.0205,-565.6403 0,-90.50002 990,-0.04 0,90.54002 45.5,0 0,180 -45.5,0 0,270 45.5,0 0,180 -45.5,0 0,89.49998 -990,0 0,-89.49998 -44.46,0 -0.04,-180 44.5,0 0,-270 -44.5,0 0,-180 z"
         id="path3097"
         inkscape:connector-curvature="0"
         sodipodi:nodetypes="ccccccccccccccccccccc" />
    </g>
    <path
       sodipodi:nodetypes="ccccccccccccccccccccc"
       inkscape:connector-curvature="0"
       id="path3099"
       d="m 1374.1653,332.35972 0,-90.50002 990,-0.04 0,90.54002 45.5,0 0,180 -45.5,0 0,270 45.5,0 0,180 -45.5,0 0,89.49998 -990,0 0,-89.49998 -44.46,0 -0.04,-180 44.5,0 0,-270 -44.5,0 0,-180 z"
       style="fill:none;stroke:#ff0000;stroke-width:1;stroke-miterlimit:4;stroke-opacity:1" />
    <g
       transform="translate(808.39769,41.345299)"
       id="g3144">
      <path
         sodipodi:nodetypes="ccccccccccccccccccccc"
         inkscape:connector-curvature="0"
         id="path3146"
         d="m 1395,-1062.6403 0,-45.5 990,-0.038 0,45.54 45.5,0 0,90.00004 -45.5,0 0,90 45.5,0 0,90 -45.5,0 0,44.5 -990,-0.04 0,-44.46 -44.5,0 0,-90 44.5,-0.002 0,-90 -44.5,0 0,-90.00004 z"
         style="fill:none;stroke:#ff0000;stroke-width:1;stroke-miterlimit:4;stroke-opacity:1" />
    </g>
    <g
       id="g3188">
      <path
         sodipodi:nodetypes="cccccccccccc"
         inkscape:connector-curvature="0"
         id="path2985"
         d="M 0,1052.3622 0,-819.11727 872.68434,-1049.0941 977.28486,-657.63782 684.29649,-577.5062 934,332.36218 l 321.3936,0 38.6064,33.85697 0,419.02167 -180,0 90,267.12138 z"
         style="fill:none;stroke:#000000;stroke-width:1px;stroke-linecap:butt;stroke-linejoin:miter;stroke-opacity:1" />
      <rect
         transform="matrix(0.25881905,0.96592583,-0.96592583,0.25881905,0,0)"
         style="fill:none;stroke:#ff0000;stroke-width:0.69637185;stroke-miterlimit:4;stroke-opacity:1;stroke-dasharray:none"
         id="rect3069"
         width="360.30362"
         height="21.803629"
         x="-764.80609"
         y="-1091.693" />
      <path
         style="fill:none;stroke:#ff0000;stroke-width:1;stroke-miterlimit:4;stroke-opacity:1"
         d="m 327.07421,291.21774 0,44.5 -180,0 0,-44.5 z m 450,0 0,44.46 -180,0.04 0,-44.5 z"
         id="path3102"
         inkscape:connector-curvature="0"
         sodipodi:nodetypes="cccccccccc" />
      <path
         sodipodi:nodetypes="cccccccccc"
         inkscape:connector-curvature="0"
         id="path3104"
         d="m 748.47896,-260.31496 -42.9837,11.51745 -46.58743,-173.86665 42.9837,-11.51745 z M 864.94753,174.35166 822.00247,185.85876 775.3764,12.002464 818.3601,0.48501424 z"
         style="fill:none;stroke:#ff0000;stroke-width:1;stroke-miterlimit:4;stroke-opacity:1" />
      <path
         sodipodi:nodetypes="cccccccccc"
         inkscape:connector-curvature="0"
         id="path3106"
         d="m 307.32736,-875.15829 11.51745,42.9837 -173.86665,46.58743 -11.51745,-42.9837 z m 434.66662,-116.46857 11.5071,42.94506 -173.8563,46.62607 -11.51745,-42.9837 z"
         style="fill:none;stroke:#ff0000;stroke-width:1;stroke-miterlimit:4;stroke-opacity:1" />
      <g
         id="g3108"
         transform="translate(-348.34393,-377.0932)">
        <path
           style="fill:none;stroke:#ff0000;stroke-width:1;stroke-miterlimit:4;stroke-opacity:1"
           d="m 1596.8206,740.83457 0,44.5 -90,0 0,-44.5 z m -180.002,0 0,44.5 -90,0 0,-44.5 z"
           id="path3110"
           inkscape:connector-curvature="0"
           sodipodi:nodetypes="cccccccccc" />
      </g>
      <g
         transform="matrix(0.96592583,-0.25881905,0.25881905,0.96592583,-870.41098,-995.04665)"
         id="g3180">
        <path
           sodipodi:nodetypes="cccccccccc"
           inkscape:connector-curvature="0"
           id="path3182"
           d="m 1596.8206,740.83457 0,44.5 -90,0 0,-44.5 z m -180.002,0 0,44.5 -90,0 0,-44.5 z"
           style="fill:none;stroke:#ff0000;stroke-width:1;stroke-miterlimit:4;stroke-opacity:1" />
      </g>
      <g
         transform="matrix(0,-1,1,0,498.21389,2051.0631)"
         id="g3184">
        <path
           sodipodi:nodetypes="cccccccccc"
           inkscape:connector-curvature="0"
           id="path3186"
           d="m 1596.8206,740.83457 0,44.5 -90,0 0,-44.5 z m -180.002,0 0,44.5 -90,0 0,-44.5 z"
           style="fill:none;stroke:#ff0000;stroke-width:1;stroke-miterlimit:4;stroke-opacity:1" />
      </g>
      <path
         sodipodi:nodetypes="cccccccccc"
         inkscape:connector-curvature="0"
         id="path3248"
         d="m 327.07421,951.43459 0,44.5 -180,0 0,-44.5 z m 450,0 0,44.46 -180,0.04 0,-44.5 z"
         style="fill:none;stroke:#ff0000;stroke-width:1;stroke-miterlimit:4;stroke-opacity:1" />
    </g>
    <g
       id="g3201"
       transform="matrix(-1,0,0,1,4268.6849,0)">
      <path
         style="fill:none;stroke:#000000;stroke-width:1px;stroke-linecap:butt;stroke-linejoin:miter;stroke-opacity:1"
         d="M 0,1052.3622 0,-819.11727 872.68434,-1049.0941 977.28486,-657.63782 684.29649,-577.5062 934,332.36218 l 321.3936,0 c 17.1164,0 38.6064,16.74055 38.6064,33.85697 l 0,419.02167 -180,0 90,267.12138 z"
         id="path3203"
         inkscape:connector-curvature="0"
         sodipodi:nodetypes="ccccccsscccc" />
      <rect
         y="-1091.693"
         x="-764.80609"
         height="21.803629"
         width="360.30362"
         id="rect3205"
         style="fill:none;stroke:#ff0000;stroke-width:0.69637185;stroke-miterlimit:4;stroke-opacity:1;stroke-dasharray:none"
         transform="matrix(0.25881905,0.96592583,-0.96592583,0.25881905,0,0)" />
      <path
         sodipodi:nodetypes="cccccccccc"
         inkscape:connector-curvature="0"
         id="path3207"
         d="m 327.07421,291.21774 0,44.5 -180,0 0,-44.5 z m 450,0 0,44.46 -180,0.04 0,-44.5 z"
         style="fill:none;stroke:#ff0000;stroke-width:1;stroke-miterlimit:4;stroke-opacity:1" />
      <path
         style="fill:none;stroke:#ff0000;stroke-width:1;stroke-miterlimit:4;stroke-opacity:1"
         d="m 748.47896,-260.31496 -42.9837,11.51745 -46.58743,-173.86665 42.9837,-11.51745 z M 864.94753,174.35166 822.00247,185.85876 775.3764,12.002464 818.3601,0.48501424 z"
         id="path3209"
         inkscape:connector-curvature="0"
         sodipodi:nodetypes="cccccccccc" />
      <path
         style="fill:none;stroke:#ff0000;stroke-width:1;stroke-miterlimit:4;stroke-opacity:1"
         d="m 307.32736,-875.15829 11.51745,42.9837 -173.86665,46.58743 -11.51745,-42.9837 z m 434.66662,-116.46857 11.5071,42.94506 -173.8563,46.62607 -11.51745,-42.9837 z"
         id="path3211"
         inkscape:connector-curvature="0"
         sodipodi:nodetypes="cccccccccc" />
      <g
         transform="translate(-348.34393,-377.0932)"
         id="g3213">
        <path
           sodipodi:nodetypes="cccccccccc"
           inkscape:connector-curvature="0"
           id="path3215"
           d="m 1596.8206,740.83457 0,44.5 -90,0 0,-44.5 z m -180.002,0 0,44.5 -90,0 0,-44.5 z"
           style="fill:none;stroke:#ff0000;stroke-width:1;stroke-miterlimit:4;stroke-opacity:1" />
      </g>
      <g
         id="g3217"
         transform="matrix(0.96592583,-0.25881905,0.25881905,0.96592583,-870.41098,-995.04665)">
        <path
           style="fill:none;stroke:#ff0000;stroke-width:1;stroke-miterlimit:4;stroke-opacity:1"
           d="m 1596.8206,740.83457 0,44.5 -90,0 0,-44.5 z m -180.002,0 0,44.5 -90,0 0,-44.5 z"
           id="path3219"
           inkscape:connector-curvature="0"
           sodipodi:nodetypes="cccccccccc" />
      </g>
      <g
         id="g3221"
         transform="matrix(0,-1,1,0,498.21389,2051.0631)">
        <path
           style="fill:none;stroke:#ff0000;stroke-width:1;stroke-miterlimit:4;stroke-opacity:1"
           d="m 1596.8206,740.83457 0,44.5 -90,0 0,-44.5 z m -180.002,0 0,44.5 -90,0 0,-44.5 z"
           id="path3223"
           inkscape:connector-curvature="0"
           sodipodi:nodetypes="cccccccccc" />
      </g>
    </g>
  </g>
</svg>
