<?xml version="1.0" encoding="UTF-8" standalone="no"?>
<!-- Created with Inkscape (http://www.inkscape.org/) -->

<svg
   xmlns:dc="http://purl.org/dc/elements/1.1/"
   xmlns:cc="http://creativecommons.org/ns#"
   xmlns:rdf="http://www.w3.org/1999/02/22-rdf-syntax-ns#"
   xmlns:svg="http://www.w3.org/2000/svg"
   xmlns="http://www.w3.org/2000/svg"
   xmlns:sodipodi="http://sodipodi.sourceforge.net/DTD/sodipodi-0.dtd"
   xmlns:inkscape="http://www.inkscape.org/namespaces/inkscape"
   id="svg3935"
   version="1.1"
   inkscape:version="0.48.5 r10040"
   width="1024.125"
   height="720.15625"
   xml:space="preserve"
   sodipodi:docname="32c3_knot.svg"><metadata
     id="metadata3941"><rdf:RDF><cc:Work
         rdf:about=""><dc:format>image/svg+xml</dc:format><dc:type
           rdf:resource="http://purl.org/dc/dcmitype/StillImage" /><dc:title /></cc:Work></rdf:RDF></metadata><defs
     id="defs3939"><clipPath
       clipPathUnits="userSpaceOnUse"
       id="clipPath3949"><path
         d="m 0,595.2 841.92,0 L 841.92,0 0,0 0,595.2 z"
         id="path3951"
         inkscape:connector-curvature="0" /></clipPath></defs><sodipodi:namedview
     pagecolor="#ffffff"
     bordercolor="#666666"
     borderopacity="1"
     objecttolerance="10"
     gridtolerance="10"
     guidetolerance="10"
     inkscape:pageopacity="0"
     inkscape:pageshadow="2"
     inkscape:window-width="1949"
     inkscape:window-height="1437"
     id="namedview3937"
     showgrid="false"
     inkscape:zoom="1.425104"
     inkscape:cx="244.35519"
     inkscape:cy="201.90096"
     inkscape:window-x="0"
     inkscape:window-y="0"
     inkscape:window-maximized="0"
     inkscape:current-layer="svg3935"
     fit-margin-top="0"
     fit-margin-left="0"
     fit-margin-right="0"
     fit-margin-bottom="0" /><path
     sodipodi:type="arc"
     style="opacity:0.5;fill:none;stroke:#000000;stroke-width:0;stroke-miterlimit:4;stroke-opacity:1;stroke-dasharray:none"
     id="path4046"
     sodipodi:cx="-196.47688"
     sodipodi:cy="-60.852631"
     sodipodi:rx="32.980049"
     sodipodi:ry="35.786861"
     d="m -163.49683,-60.852631 a 32.980049,35.786861 0 1 1 -65.9601,0 32.980049,35.786861 0 1 1 65.9601,0 z"
     transform="matrix(0.8,0,0,-0.8,111.30335,718.47605)"
     clip-path="none"
     mask="none" /><path
     mask="none"
     clip-path="none"
     id="path4048"
     style="fill:none;stroke:#000000;stroke-width:1.86662734"
     d="m 116.98101,513.15182 0.0747,-1.03224 -6.04041,-2.18396 -16.42072,-4.09351 -15.74687,-0.0672 1.39811,16.73431 36.73522,-9.3574 m 8.50809,-5.59615 11.91655,-10.49418 6.494,-10.02005 2.47888,-28.6322 -12.38134,-24.91201 -21.38408,-15.31567 -22.5638,-4.56764 -41.67992,22.40886 -9.76433,15.45381 -1.96742,8.99154 1.82183,0.64586 20.64303,1.86102 0.52639,-2.69167 7.64757,-16.77725 25.40293,-9.94352 30.33643,25.54852 0.56932,3.98712 -19.14413,35.05153 -4.24844,2.00102 25.29653,7.40491 m -91.59354,69.7372 3.33753,7.12865 10.48858,15.55647 10.32619,9.07181 26.07491,9.14087 7.10252,0.36959 14.90502,-2.64314 15.92793,-5.65961 17.16737,-15.91114 8.99528,-33.31556 -13.76638,-38.24159 -9.12594,-6.24387 -2.89701,0.112 -20.40783,6.53133 -3.90685,1.23197 3.86392,1.83116 7.40117,3.0762 17.4959,30.12923 -3.80605,19.59212 -14.12104,15.57514 -32.70331,0.0131 -15.12901,-13.93437 -5.51029,-3.4514 -21.71261,0.0411 m 168.65351,-109.23316 0.56746,-5.05856 5.20789,-14.56716 34.97686,-11.2091 11.12323,7.09878 10.48485,19.61079 1.78636,8.26542 -5.88174,20.29024 -27.46556,36.3451 -26.24477,28.7666 -28.89353,30.49882 -2.00102,4.6927 0.0859,12.08641 1.21518,15.37541 110.29527,-1.14051 -0.76532,-22.65525 -3.38233,-0.168 -53.23621,1.34584 -14.71462,-1.01918 -3.1042,-6.12254 6.0516,-8.30089 8.02837,-10.16565 16.66151,-21.02756 6.85053,-9.35927 20.68036,-32.96277 10.75364,-17.01804 6.2532,-19.90571 -6.41186,-23.41311 -6.79266,-9.86699 -8.17023,-6.94385 -21.41768,-13.48265 -12.63893,-2.78688 -48.23552,26.43704 -5.56255,20.67664 -0.0392,4.31004 23.93576,1.37384 m -49.58508,13.65064 7.13611,-5.06603 7.62704,-4.62923 3.74632,-5.00256 3.19754,-17.55937 13.56664,-25.2312 31.7588,-15.8234 42.5927,11.53576 16.94898,13.90451 7.61024,10.92537 7.36571,27.26955 -4.14391,16.85565 -13.90638,23.4411 -20.74943,32.40652 -6.2252,8.72648 -20.32944,24.98481 -5.89854,6.71613 -4.03938,4.4351 3.90498,0.85305 30.4279,0.31546 31.3164,-1.20957 3.58206,0.028 5.42628,5.17802 0.49093,24.17282 -6.4884,7.33585 -4.45937,0.37146 -59.52115,1.39437 -39.37463,-0.81012 -10.14885,-1.54557 -3.83032,-4.7095 -0.91278,-28.17114 4.5527,-10.10405 24.77014,-25.80426 29.41432,-32.55398 26.64237,-35.29045 4.11591,-8.92995 0.28559,-10.9515 -6.88225,-15.96899 -27.05863,-9.35741 -16.73058,19.69105 -11.13256,9.38354 -14.3133,-0.25013 -3.4738,0.49839 -30.08256,19.75265 -2.46768,3.1658 -13.45092,14.73329 -2.03649,1.11998 12.46907,13.16905 10.08912,41.63886 -0.96131,7.99476 -10.39525,25.93865 -19.65932,16.48046 -31.88012,8.14969 -8.42783,-0.55625 -27.81274,-9.61127 -13.29226,-11.74108 -10.40458,-15.61247 -4.12898,-11.68509 5.32362,-5.70815 15.19062,-0.16053 13.38745,0.62719 4.6087,4.27644 8.39422,10.79098 10.66965,4.26711 11.16803,0.63278 20.92489,-14.77435 2.61514,-9.00835 -9.24354,-28.66579 -9.2006,-5.15749 -21.57635,-3.58579 -6.298,-6.06841 -1.5437,-18.7316 -0.13813,-1.33651 6.66013,-7.55051 3.1322,0.0597 23.58297,-5.54015 11.77842,-16.90605 -2.32022,-19.32519 -5.54015,-7.43851 -30.12177,-3.63619 -12.56053,18.75774 -5.93028,5.91721 -25.0464,-1.04905 -4.14765,-4.92789 4.91856,-18.30042 34.23395,-31.5964 52.45783,4.51537 14.97222,11.31736 13.02532,21.14143 2.21755,30.02656 -0.0131,2.74581 m 676.94918,-212.50096 6.94199,-6.86359 4.98576,-7.73157 -1.89649,1.37384 -10.67524,9.26034 0.64398,3.96098 m 60.41713,67.62978 -5.60922,-0.60106 -2.9922,3.64179 2.71408,7.72784 0.95384,-0.002 4.9335,-10.76671 m -296.00042,190.42399 -10.34299,-9.76059 2.95114,10.09285 7.39185,-0.33226 m 209.83317,-149.12859 5.89668,14.1285 3.50365,-16.89111 -9.40033,2.76261 m -214.26081,135.06542 9.49366,9.49553 2.01036,-20.2305 -11.50402,10.73497 m 308.43589,-179.61061 10.35605,0.89411 7.59904,-3.20873 1.31037,-4.80283 -3.95912,-2.20076 -15.30634,9.31821 m -52.0397,-14.19571 8.65182,-10.98696 7.94249,-13.79998 0.47226,-2.9474 -22.64965,18.53747 5.58308,9.19687 m -40.57491,-27.19114 16.48232,-14.87142 0.78212,-8.22063 -21.76114,13.26239 4.4967,9.82966 m -5.14256,68.37456 -9.55526,-13.79251 -19.88892,9.01394 29.44418,4.77857 m -4.7991,-16.68205 11.26137,13.11679 15.10474,-10.38032 -6.96625,-5.62601 -6.00494,-6.23454 -13.39492,9.12408 m -21.09662,-51.33599 5.53082,19.04707 20.47503,-15.33994 -4.64417,-12.07708 -21.36168,8.36995 m 52.00984,49.74935 10.13205,-9.78486 5.19856,-6.12813 0.28559,-3.67166 -6.23267,-8.90941 -21.67714,17.72736 12.29361,10.7667 m -116.27408,-10.71444 -8.43156,-2.33701 -14.99088,4.5863 -1.83303,6.1076 12.76773,14.08744 19.76385,-5.10896 -7.27611,-17.33537 m 13.09252,12.83493 5.67268,-4.50604 3.33753,-3.46259 5.55508,-5.11082 7.93877,-2.97168 28.66953,-13.61517 -5.03056,-20.32198 -33.35663,10.49232 5.47668,17.39136 -2.52554,6.86359 -5.09776,1.5493 -10.12086,1.46717 -7.50384,4.17005 6.98492,8.05449 m 92.54925,220.19109 -22.27446,9.34247 -22.32673,3.46633 -25.94799,-4.41084 -7.88837,-1.68557 -2.26048,12.30294 2.19888,3.94979 8.44089,2.77194 21.50728,4.21671 12.87226,1.24691 30.43163,-6.01054 5.24709,-25.19014 m -383.55084,-189.6512 16.22472,-2.41168 5.26016,-4.11591 12.5232,-40.45728 6.54813,-34.69874 -0.46293,-20.85209 -4.12524,-3.92365 -8.30276,6.1356 -2.14475,10.04619 -8.75449,45.16865 -2.67861,20.82783 -6.38573,14.62129 -7.7017,9.65979 m 407.16181,-188.77762 -3.93859,-8.63128 -12.00241,-20.71023 -16.53272,-22.22966 -6.84679,-6.12254 -20.82782,-4.35671 -0.42559,0.50959 5.962,10.98883 7.9817,20.40971 8.90755,18.99853 13.89517,29.50018 1.35704,2.23995 22.47046,-20.59636 m -78.88927,171.30225 -0.80265,0.84558 5.09402,11.1979 1.60904,1.4989 13.58718,3.95351 42.4079,-10.05738 31.32014,-14.3581 15.913,-15.03382 22.1158,-53.7402 -3.75379,-14.29089 -3.99645,-3.58393 -5.72681,-0.12133 -2.48821,3.63806 -4.36791,10.29631 -1.23198,7.36571 -8.48568,25.20134 -12.48214,16.87618 -10.79844,12.47653 -17.47723,14.66049 -26.43144,14.56156 -23.33098,-5.02682 -6.84679,-5.02496 -3.82658,-1.33464 m 108.78517,-9.33687 12.72853,17.44363 24.93814,44.95959 2.32209,4.83643 3.19566,3.54099 29.57481,14.61196 34.0231,3.33939 24.841,-3.34686 11.7056,-2.74581 3.7314,-5.42068 -4.9503,-14.06317 -7.5654,-2.61515 -17.677,4.9223 -18.5505,2.03462 -17.0218,-3.75939 -19.803,-5.58308 -14.93678,-7.59157 -17.25883,-16.23966 -22.05421,-35.99417 -2.01222,-5.51962 -5.23029,7.19025 m -56.18175,-137.73283 -18.14548,-33.81955 -6.89532,-14.02584 -9.22301,-23.75843 -21.29262,-22.59926 -22.50405,-7.21825 -14.30584,5.78095 26.64424,28.85059 6.67879,8.97474 18.34708,30.66122 5.69508,11.1307 3.48313,9.09234 5.14629,17.4847 1.04345,0.76345 25.32826,-11.31736 m -60.41712,329.33465 5.11082,1.40931 8.02837,-4.72257 8.45582,-25.94052 16.11086,-33.37716 15.16634,-21.62488 5.80148,-7.39744 18.60468,-31.38734 7.20144,-23.9787 2.09063,-19.07506 -1.8741,-8.20196 -18.52067,8.49875 -0.50399,14.08557 -9.92486,21.52595 -5.73055,11.14563 -21.81154,39.04424 -14.66609,24.03843 -13.53304,50.6528 -0.006,5.30495 m 30.00043,-316.45865 -5.70441,-13.53865 -7.63451,-17.47723 -2.17275,-4.41084 -19.20573,-32.22732 -10.28325,-14.09864 -11.83815,-14.56343 -11.1027,-7.24064 -20.38357,-5.1071 -22.0766,9.80913 2.43221,1.06958 26.18505,17.2103 9.6766,11.72615 24.21949,29.30232 19.69105,25.4384 3.89565,8.48195 4.27084,10.03126 20.03078,-4.40524 m 64.02158,-43.35616 -0.57678,8.76755 -2.81115,3.47379 -26.78236,23.71924 -7.40491,4.09165 -14.04824,5.84441 -13.57038,4.44257 -27.71195,5.04363 -42.7719,2.9082 -10.71817,0.57306 -8.96915,3.18446 -6.0572,2.73274 -6.38387,2.07196 -1.92076,7.07078 11.88855,7.66811 26.50051,3.41593 42.18764,-5.10523 57.92892,-25.87145 24.26055,-19.80492 4.35857,-4.47617 12.54747,-19.06386 2.47142,-5.25269 -3.63433,-8.96542 -13.77011,-0.22399 1.93756,4.8607 3.05007,-1.10505 m -117.34365,167.74073 8.73208,2.26609 29.9575,-0.69252 43.77428,-24.78508 40.45914,-31.79799 13.06639,-16.70819 6.96999,-15.98953 5.15562,-24.35575 -3.30393,-5.15936 -3.41406,-1.22077 -1.54183,1.76396 -11.01124,12.29361 -1.51383,1.62583 -9.04568,14.82289 -2.04769,2.91381 -22.33979,22.58619 -22.71686,18.8324 -16.20605,11.13816 -22.91659,13.94371 -11.24269,4.30071 -8.53422,2.65994 -3.04261,1.75837 -9.23793,9.80352 m -143.77697,161.67792 3.80045,-3.45512 11.46483,-26.22985 -1.88716,-22.25393 -4.08418,-14.59516 -23.87977,-24.13922 -0.41066,-0.17547 -9.88005,-4.17191 -18.32842,-3.75752 -32.97583,12.18348 -9.11475,9.17074 -8.46142,27.89861 0.36586,1.49143 12.8312,0.53759 12.77333,1.27678 3.18446,-8.38676 18.90334,-15.36234 26.9373,4.3791 14.85088,26.23918 -1.4317,8.82728 -9.24354,18.54681 -2.15035,2.68608 16.73618,9.2902 m 261.54101,-135.13448 -0.75411,0.2352 -1.31411,13.64504 -0.74852,9.32007 3.98899,21.92914 3.37486,17.96442 1.64823,54.10046 -0.67759,8.46142 -6.42306,44.70759 -0.33039,5.15749 10.21231,-6.97932 27.56636,-42.52363 1.08824,-4.76364 0.65705,-31.71399 -10.53524,-40.42742 -8.02277,-17.96442 -11.60295,-18.97427 -6.10761,-8.78994 -2.01969,-3.3842 m -404.95359,-32.69024 -21.903,9.62806 -26.49491,4.26711 -59.57714,6.36707 -58.15104,1.07331 -29.98737,-0.1512 -4.28951,3.34686 -0.20719,10.63418 6.35959,5.19296 3.5802,0.0597 76.53545,0.45545 81.72094,-3.99271 17.27004,-6.62653 15.14394,-30.2543 m 415.79683,-139.86451 -3.54846,5.14816 -14.24796,15.94286 -12.99173,10.25152 -55.2895,30.26363 -58.79316,8.32702 -8.36436,3.53913 -6.70119,8.90007 0.23146,13.05706 9.69153,4.8103 36.01284,-6.49026 39.74237,-13.68798 32.56891,-16.65778 19.75825,-14.44396 15.37167,-10.76858 17.29431,-23.64456 -7.12679,-13.41359 -3.60819,-1.13304 m -397.9388,271.27321 -0.43306,-4.53217 -15.13088,-31.81106 -13.49012,-10.85257 -17.04417,-7.8865 -34.57927,-3.79486 -29.15299,10.80778 -15.7394,16.05299 -11.82135,27.43756 2.14849,11.08216 6.4548,8.55289 6.29426,9.22114 1.08078,-4.94843 9.17821,-30.78442 24.34642,-21.31128 9.59073,-2.19142 21.12835,2.52368 17.76096,17.0143 7.19398,14.6381 32.21426,0.78211 m 248.76542,-275.0326 -12.40374,-9.5478 -16.56072,-3.80232 -47.66619,-4.30257 -33.09344,-1.48397 -51.89597,-1.92636 -91.33221,0.97438 -113.7336,-0.0747 -15.21301,-0.51893 -34.32541,-8.94114 -9.15394,-4.70577 -4.18685,-1.36077 -7.14731,-2.27355 -11.35283,-1.62023 -8.05076,13.33891 2.32955,5.81455 15.27088,12.23014 34.68753,-1.22638 22.19607,-5.29002 30.81055,6.43053 3.66419,1.00051 14.74075,-0.95944 57.1468,-3.86019 114.62398,-0.79705 92.22819,1.34957 58.73529,8.41289 9.6822,3.13967 m -166.63009,327.78909 0.51332,0.21653 1.33464,0.084 22.33793,5.50841 17.12817,26.71331 -3.15273,17.88042 -24.95307,21.01449 -15.57888,-2.35755 -14.19943,-9.23234 -7.82303,-8.38862 -2.81301,-2.43595 -21.65475,0.79332 8.44089,18.08575 7.24625,6.52759 10.12085,9.33874 4.42951,3.01274 14.27223,7.05585 11.00004,1.71543 14.87515,-1.84423 29.82497,-20.22677 7.28358,-12.16668 2.93434,-9.3854 1.14611,-29.41245 -7.69051,-16.70071 -14.63809,-0.15493 -2.9754,-17.89349 -16.65592,-8.32703 -4.70763,-0.27812 -13.75518,1.10877 -3.89005,-0.0112 1.5997,19.76012 m -222.79503,-42.39111 -0.92958,16.68205 1.72476,40.68128 6.17294,39.2421 8.49128,14.47756 14.83223,14.89009 9.65606,5.30495 28.64899,4.9223 19.44466,-1.20957 18.62707,-7.57664 13.68985,-11.23523 6.84492,-9.93046 7.23505,-18.23322 -1.96369,-3.94045 -20.35557,-2.29595 -4.74497,10.08726 -20.37797,20.32757 -16.15193,3.30019 -17.1823,-3.53352 -22.82325,-21.10969 -9.24541,-22.0374 -3.04447,-33.86062 -2.99033,-12.03041 -12.56241,-20.08305 -2.99593,-2.83914 m 526.01183,-121.28224 4.06179,5.65028 5.11642,6.74226 6.31293,8.65555 11.2091,17.69563 8.98968,20.00838 11.47602,58.75022 -1.00798,15.63301 -2.8298,10.27951 -18.25002,31.26228 -24.49015,20.2529 -2.62821,3.66046 -2.82981,19.49319 -0.0187,3.42713 6.50146,-3.96472 12.67253,-7.57291 35.18593,-36.95362 13.03652,-32.78731 3.74446,-54.47191 -9.49554,-31.99773 -21.02382,-38.95838 -5.45615,-8.73022 -8.87395,-12.29174 -2.75701,-2.91567 -18.64574,9.13341 m -5.01189,46.78515 -0.84185,0.72798 -0.53012,1.22451 -10.06486,23.7995 -0.70185,5.89854 4.37911,26.9037 -2.32022,52.62209 -14.35996,77.41463 -1.81996,49.85015 17.83562,48.8683 24.32589,16.24713 0.88851,0.0896 8.15903,-9.7942 -3.80419,-7.50571 -5.60361,-6.97558 -22.05607,-48.9187 -0.87171,-53.51621 9.11287,-58.3489 4.77483,-51.13065 -1.09011,-34.44861 -5.41135,-33.00757 m -655.88243,-73.93898 4.01885,0.71119 20.03078,-1.57357 7.13051,-3.43086 10.16565,-10.06859 25.36187,-33.0113 20.7177,-26.9149 38.34612,-27.36662 34.04355,-12.29734 11.81015,-6.72546 3.60072,-11.0691 -6.27373,-4.6423 -13.69171,2.24741 -60.98645,20.64117 -25.74826,23.18351 -26.03758,33.64596 -19.81238,25.97598 -3.00901,3.89939 -17.78709,23.56617 -1.87969,3.22926 m 541.08859,-114.84424 -1.6277,-4.43697 -11.53389,-11.40136 -35.55739,-8.73022 -21.75367,-2.53115 -80.14738,-0.90531 -117.32872,0.0205 -71.98088,3.33006 -21.12836,2.13542 -3.20686,19.06013 2.73274,-0.0112 58.4497,-4.3175 6.2588,-0.32106 32.54091,-2.92688 54.13779,-1.94502 105.10232,2.50688 4.45751,0.41066 12.00801,0.40692 51.76717,0.27253 23.53817,5.23402 13.27173,4.14951 m -711.179404,43.1079 -0.63092,0.24639 1.297306,12.74533 6.508929,42.48257 8.196359,31.55907 3.38793,8.28409 8.53422,16.63352 1.79943,3.05753 6.63026,4.47244 21.49421,0.31919 159.00865,-1.05277 4.24471,-0.002 0,-19.16653 -4.15138,-0.002 -83.76117,-0.57679 L 84.76112,357.42795 61.852,343.39465 50.58691,325.11663 36.52,289.92324 l -1.4037,-3.1434 -9.30701,-8.95794 -9.424597,-12.36081 -1.700497,-2.32208 m 661.286314,-84.66461 0.32293,-0.68879 -6.26253,-4.75616 -45.90784,-14.4029 -7.56357,0.80638 -86.8411,0.29866 -23.7099,-0.89224 -53.29781,0.98184 -111.80724,-3.73885 -54.87511,-24.46029 -21.94407,-22.93898 -3.87699,-4.34364 -10.39338,-13.40239 -23.67443,-37.44641 -4.47244,-2.12796 -10.28698,0.22027 -8.92621,0.50025 -4.82523,1.8909 6.67319,14.86581 12.4616,19.52493 19.04707,24.31096 43.72947,41.01166 19.89638,10.24965 13.47145,4.62924 28.03675,2.49195 52.40929,-0.0168 80.63083,-0.19226 104.35007,0.25012 43.84334,2.10743 41.05273,3.40659 12.73973,1.86103 m 52.88529,53.81859 -2.61328,-5.05482 -9.76993,-3.19007 -50.00881,-8.76755 -20.56836,0.94638 -61.12085,5.03989 -58.60463,2.31089 -80.3695,4.89803 -43.71641,3.62499 -55.18311,12.4896 -9.94912,5.89668 -4.15325,5.61295 -6.07027,23.77336 -3.81538,31.96599 -0.61786,16.0754 0.77839,3.98898 19.94864,-1.6501 -0.69812,-18.14921 0.42186,-32.96278 6.35027,-10.98136 14.02957,-8.67235 21.27395,-6.80573 24.73281,-3.80605 67.44498,-4.38844 55.96148,-1.25811 57.24386,-2.77941 76.95358,-3.03887 30.21883,-3.20873 20.4657,-1.86289 11.43496,-0.0467 M 319.61643,46.13425 l -1.02291,11.48722 0.68132,30.35883 3.99271,21.96648 5.70442,8.89261 29.17352,12.70426 27.53461,3.19007 55.87936,3.29086 65.76501,3.06687 76.47759,4.00765 60.23233,8.36063 25.64746,11.25949 26.70023,15.38474 21.13956,15.62368 10.35791,12.2208 8.32703,22.64219 0.52265,0.65332 20.37611,-3.18633 -3.80419,-7.41238 -4.52844,-8.68355 -20.56276,-25.94052 -20.87263,-25.12853 -14.44956,-17.06844 -17.61163,-11.13444 -26.62744,-5.80521 -48.95417,-5.17802 -118.2247,-2.17276 -6.71613,0.16613 -60.44139,1.29918 -37.09922,-1.88716 -20.93422,-8.22996 -5.40762,-6.38573 -6.88412,-20.27718 -1.59037,-34.76967 -4.75057,-5.29375 -18.02975,1.97862 M 32.2828,274.08502 l -2.46208,-32.84517 -2.45089,-61.72563 2.03836,-57.69558 11.52829,-60.02701 12.9992,-16.27699 1.75276,-1.3701 9.01581,-4.80097 23.09018,-5.22842 16.40392,-2.29409 49.42642,-4.94283 20.59077,-0.58425 65.77434,-2.83914 52.28797,-3.46446 76.09493,0.85305 46.00116,6.88972 19.18893,12.96186 15.34181,31.16147 5.47482,18.91081 3.59699,4.5807 16.02872,0.72799 -4.37537,-35.60779 -1.04718,-9.32754 -1.18717,-11.11203 -12.00802,-15.33434 -35.91017,-10.99257 -68.99801,-6.36893 -46.58915,-0.2408 -42.08872,0.77279 -57.14119,4.56017 -90.14876,7.41051 -78.50102,6.99798 -12.4728,3.33193 -5.032428,6.31107 -2.338884,10.02006 -3.512993,27.00076 -1.22264,26.37358 -3.550326,41.92818 -0.227728,46.56489 3.828452,47.2854 5.934009,16.0698 0.563721,1.20957 4.931627,10.49045 9.37234,10.6659 m 559.79032,-59.9038 0.0765,-1.14424 -9.23234,-0.50026 -106.55455,2.41355 -20.5553,1.25811 -64.75331,4.29324 -75.5368,16.92471 -47.64006,36.84722 -21.02569,27.86502 -25.18081,32.00519 -6.78892,4.8383 -18.8156,3.31513 -12.46721,-0.73359 -4.35484,-9.447 9.7326,-13.94371 2.12422,-7.93876 -2.09436,-7.25371 -19.47639,-18.05776 -10.70697,-3.18633 -20.78676,0.009 -20.25664,8.29156 -41.0714,11.65709 -10.58378,-1.09011 -18.68494,-7.48145 -3.34126,-1.05651 1.21517,4.80097 23.15552,44.22973 15.28581,9.28647 20.44703,2.35195 46.46036,2.75514 71.65982,0.37706 13.8821,0.12133 5.0119,-2.16342 16.91351,-10.32245 43.07429,-1.83676 22.55072,3.47193 30.3775,-0.52639 9.64486,-3.08553 4.13085,-21.41209 -5.34602,-3.149 -12.46161,11.53016 -9.14461,9.15207 -16.96764,0.99118 -8.02276,-7.38064 -0.2464,-13.85411 3.37487,-32.46998 5.18922,-24.93627 17.28124,-20.24544 24.49388,-8.46516 44.67772,-6.44546 35.23633,-2.94181 64.25304,-4.7599 59.9822,-1.4933 21.86567,-1.4653 m 5.09963,-60.64859 -0.0429,-0.71118 -3.29087,-0.40693 -29.06338,-1.71729 -87.67549,-4.44444 -95.26892,-4.91483 -45.26011,-9.64487 -20.7457,-23.45977 -3.62686,-24.29602 0.50586,-37.07122 7.04652,-7.28918 8.40355,-1.29917 12.9152,-0.52826 8.98034,6.42867 1.87783,3.009 6.186,17.76656 5.00816,10.15258 8.88142,2.99034 3.57645,-0.15493 12.03975,-8.1273 2.42288,-8.53048 7.68677,-12.70613 22.69073,-5.98441 6.42306,0.81198 -14.91995,-9.40967 -44.70759,-6.48466 -70.72091,-0.94825 -57.65265,3.75192 -70.69291,2.98847 -32.19932,1.42984 -51.96317,6.59853 -31.38921,14.46449 -5.58308,8.87022 -6.81132,26.38664 -5.15376,43.08176 -1.11624,43.86574 0.39945,22.37713 1.42237,31.7644 1.62584,23.22831 3.49992,23.88349 5.26763,5.99748 19.89264,8.07503 9.11101,1.67996 38.81278,-9.85766 19.05453,-7.73157 22.01314,-1.96929 17.63963,4.84016 22.69445,24.86348 1.00425,3.15087 6.82439,-8.40543 13.03466,-17.06844 28.27567,-36.95735 8.18142,-11.21096 14.3133,-13.42292 47.55607,-22.37713 32.54091,-6.04787 2.65434,-0.83812 -5.72681,-2.83727 -12.428,-0.27066 -21.80408,4.97083 -39.53516,2.25115 -18.99294,-12.57733 -4.82709,-11.52269 4.80656,-15.94473 11.81388,-4.7543 -2.11302,-1.7957 -30.69668,-33.0281 -19.05267,-24.30162 -10.8395,-15.84021 -8.33449,-18.34148 2.78314,-10.08165 11.05976,-2.99407 15.66661,-0.22026 10.82084,6.12814 14.99648,24.38748 24.05896,31.63561 0.29306,0.33972 24.76641,24.52748 34.00808,15.90927 55.69083,5.38335 56.42814,0.3024 61.8059,-1.03598 19.24866,0.37146 70.28971,1.33463 3.23487,-0.43679 m 297.85398,184.66357 -7.53557,16.23966 19.56972,26.56024 11.12883,10.35418 14.752,8.63315 15.4911,4.38845 19.5007,4.87189 10.6267,-0.28186 24.6488,-6.52013 7.9014,-0.16986 3.0968,1.5717 8.859,22.2278 -7.6775,10.43818 -12.5194,3.149 -27.4992,3.70899 -34.0585,-3.67539 -26.64049,-12.85546 1.82369,8.50435 1.47651,55.14764 -9.57954,30.65002 -5.94147,14.00903 -39.78156,42.20258 -6.30173,3.40473 -16.87058,9.68219 -0.87358,13.06266 18.32654,74.32537 9.587,12.3832 5.82761,11.46109 -15.8738,17.42684 -9.74379,-3.10607 -17.70869,-12.6184 -2.37062,-3.24607 -19.43159,-56.29374 1.03224,-39.71436 0.95572,-6.16361 -3.00154,0.19973 -24.63948,4.32311 -14.65302,-1.23384 -23.29738,-4.46124 -11.12883,-4.46684 -3.65486,-6.32973 2.99034,-16.59432 9.09794,-4.36417 27.15943,5.45615 22.48539,-2.07942 23.42804,-8.86835 4.24844,-5.01936 7.82117,-53.59647 -2.72154,-53.01782 -0.73172,-2.57221 -8.59955,10.14512 -24.87468,36.61763 -14.75755,39.79276 -2.68608,9.00274 -13.46025,7.25745 -4.80096,-1.08451 -7.35638,-9.00461 2.94554,-25.30213 22.92031,-51.16799 24.76081,-43.02949 7.69237,-14.66983 0.86425,-5.51028 -7.63264,-18.24442 -14.29836,1.37571 -20.4713,-4.9895 -4.7319,-5.74921 -4.16258,-9.40967 -3.52979,-2.85967 -24.07576,-4.62737 -5.67642,1.02851 -2.84474,2.17462 -37.7488,-11.22403 -1.28611,-4.7431 4.51351,-12.3552 20.31264,-5.24149 6.52946,1.5549 13.24372,0.0205 7.51131,-0.92772 3.86205,-0.35839 -5.04549,-17.66576 -9.96219,1.47463 -14.73889,0.78772 -10.73124,-5.48788 -4.60311,-15.57514 2.03463,-5.33296 7.15665,-11.05976 -5.23963,-1.16851 -18.49081,-8.54169 -4.48177,-4.97083 -0.21466,-11.80641 0.74105,-1.70237 -6.86919,0.39013 -24.58721,1.38504 -73.36965,3.44206 -63.12001,2.13915 -57.29239,1.92823 -52.55862,5.23402 -27.83141,8.26169 -12.09202,7.53744 -4.08604,6.67506 0.13626,36.79496 3.46633,-1.29917 8.93928,-2.69355 10.7779,5.37962 -3.261,27.51782 -13.74397,5.69322 -22.33793,1.21144 -28.41194,-3.3562 -19.56972,-1.98982 -24.83174,2.76821 -11.61602,5.86867 3.32073,0.34533 49.26963,0.39012 62.11949,-3.70339 56.30307,-7.86596 13.52745,-4.48924 4.51724,-4.16258 6.26254,-14.72022 4.14204,-22.90539 3.76126,-13.79997 3.52605,-12.01175 10.45498,-7.79317 3.1322,0.0971 7.99104,6.73479 -0.1568,31.49561 -4.26151,25.58399 -13.62265,43.40842 -9.2118,6.68252 -31.8148,5.06976 -57.15426,14.4477 -21.87127,11.1195 -22.3734,36.41043 -0.92584,10.69577 1.5605,6.03108 4.02071,-10.27019 11.65522,-21.11342 19.50626,-15.31008 48.9915,-8.90194 3.07993,0.57119 38.58319,18.24628 19.73025,28.25327 4.08605,16.90791 -8.02277,8.88701 -33.55076,-0.40132 -4.95029,-4.34551 -9.5758,-20.33504 -17.05724,-11.04297 -2.20449,-0.24266 -24.59468,5.96948 -12.24507,13.20638 -10.26272,49.48056 0.85678,8.00783 1.80876,25.83972 8.3177,23.74163 21.96647,20.03452 7.16784,2.30715 22.28193,-3.73139 14.4421,-16.01753 4.36417,-10.27578 5.22843,-3.34313 21.69767,3.19006 18.11189,-4.6703 21.13582,-27.15756 9.95099,-20.50677 19.04333,-12.50453 24.02723,-2.17836 11.54695,1.05465 9.60007,-3.05194 7.75583,-15.34741 0.73359,-4.4183 -14.76502,-25.32827 -16.60739,-2.62448 -15.95593,10.57631 -3.35433,7.32278 -8.82168,5.58682 -15.20554,-0.73919 -9.75126,0.54692 -4.52844,-3.06313 -0.2072,-8.44276 2.49568,-13.18772 13.80745,-22.99498 8.92807,-7.45718 39.39331,-8.67235 16.78471,4.58817 23.88163,16.20793 12.65386,20.7177 4.39218,30.02096 -0.52079,8.44089 0.0168,11.61789 1.30477,16.03993 -3.61752,11.29496 -2.32955,3.33566 10.13578,23.87043 0.48906,15.96153 -6.39133,23.73603 -9.80726,14.76316 -30.44283,20.19317 -11.25763,2.55915 -29.40498,-6.12627 -11.08589,-7.49824 -10.42698,-9.66167 -7.55425,-6.86172 -8.49502,-15.52474 -1.46343,-5.16495 7.27424,-9.22674 22.36407,-0.1512 5.99374,3.50739 8.37369,9.6038 12.428,7.88463 5.91534,1.72477 24.71228,-16.00073 3.02767,-15.65914 -14.09304,-22.06727 -23.3403,-5.14442 -4.77857,-3.75752 0.0672,-1.7789 -1.89089,-24.36882 -15.60127,2.12982 -10.47365,9.14835 -9.99952,21.987 -25.22,28.85059 -7.10812,2.59088 -3.55406,3.91432 -20.5217,38.53092 -20.74383,12.10321 -26.89436,5.52335 -15.91487,-2.38929 -15.00395,-2.48634 -18.30228,-9.26781 -13.59091,-13.62264 -9.8278,-16.79592 -6.99051,-48.6163 -0.97812,-19.67612 1.8293,-36.59523 -0.39946,-4.7375 -1.28611,-34.8854 15.42581,-26.44077 8.96915,-7.34331 28.79085,-13.20639 2.83168,-1.56424 -2.75328,-0.28372 -90.03863,0.13999 -87.79682,-0.49279 -114.66691,1.34211 -25.50746,-0.59919 -11.08217,-6.65453 -0.71678,-1.5717 -2.38369,-6.73105 -4.81775,-10.08912 -14.891955,-56.9452 -4.369775,-28.7666 -4.569504,-44.54146 -3.927383,-72.83393 2.099955,-37.98586 3.524193,-43.28523 0.04107,-1.3421 4.978295,-39.78716 0.134398,-0.42559 17.150566,-16.52899 14.20504,-1.74156 83.82089,-7.79877 36.60083,-2.94181 72.77793,-5.66708 78.29942,-2.53114 42.10738,0.28373 66.25407,6.88598 34.16115,10.63231 16.43192,20.96036 0.92211,11.57122 2.02715,15.96153 2.59649,28.05168 -3.49247,5.1071 -14.63809,1.26184 -2.22315,-0.23707 -10.42698,-8.78994 -7.87157,-25.20694 -8.17583,-15.8346 -2.31275,-1.9469 -24.46962,0.308 -10.86377,14.2965 -11.13816,17.02737 -17.76656,3.07433 -10.04059,-7.7017 -4.37911,-13.33892 -2.06635,-7.14171 -0.42933,2.7738 4.59564,33.95023 3.261,8.31395 4.05245,4.64977 15.53407,6.38947 55.45376,2.12982 105.68284,-0.72425 49.71388,0.95011 58.3937,5.09589 19.20013,2.88021 9.23607,-9.75873 17.55937,-5.59055 12.17227,2.90821 4.29885,1.23944 9.12407,-2.28288 5.58122,-4.45751 9.74192,-2.64314 7.51131,1.10877 26.50612,10.38405 13.38558,4.01138 22.67765,4.50791 10.37658,8.84781 13.36879,18.46468 14.97595,20.93422 6.17853,-0.28373 8.02651,0.11574 10.81336,15.43887 -2.26795,6.2756 -2.81674,5.42442 10.32245,4.97083 4.26897,10.99817 -2.09808,11.63468 3.02766,1.18531 6.64333,9.35367 -1.5829,16.44499 -0.93891,4.36977 15.7338,11.33416 2.26048,15.46501 -1.10317,3.4066 -17.17296,43.26282 -1.17412,3.15273 11.44056,-1.23384 4.28577,-1.51944 6.10947,-6.51079 16.09033,-3.4122 5.44127,5.90228 -2.67679,9.391 -14.46263,4.6479 -10.49604,-1.84422"
     inkscape:connector-curvature="0" /></svg>